# xmcd
#
# Track frame offsets: 
#        150
#        13445
#        29086
#        63881
#        76902
#        94128
#        112845
#        138234
#        148115
#        163791
#        178958
#        191661
#
# Disc length: 2713 seconds
#
# Revision: 0
# Processed by: cddbd v1.5.2PL0 Copyright (c) Steve Scherf et al.
# Submitted via: ExactAudioCopy v0.95b3
#
DISCID=a90a970c
DTITLE=Earl Gaines - Crankshaft Blues
DYEAR=2007
DGENRE=Blues
TTITLE0=Don't Take My Kindness For A Weakness
TTITLE1=Where Have You Been So Long
TTITLE2=Crankshaft Blues
TTITLE3=Someday Things Are Gonna Change
TTITLE4=Baby, Baby What's Wrong
TTITLE5=You Don't Know But I Do
TTITLE6=I Believe In Your Love
TTITLE7=Farther Up The Road
TTITLE8=Good News Real Bad
TTITLE9=Doctor Lady
TTITLE10=Hey Hey I Love You
TTITLE11=It's Love Baby (24 Hours A Day)
EXTD=
EXTT0=
EXTT1=
EXTT2=
EXTT3=
EXTT4=
EXTT5=
EXTT6=
EXTT7=
EXTT8=
EXTT9=
EXTT10=
EXTT11=
PLAYORDER=
